<?xml version="1.0" encoding="UTF-8"?>
<svg width="173px" height="34px" viewBox="0 0 173 34" version="1.1" xmlns="http://www.w3.org/2000/svg" xmlns:xlink="http://www.w3.org/1999/xlink">
    <g id="Symbols" stroke="none" stroke-width="1" fill="none" fill-rule="evenodd">
        <g id="Group-14">
            <g id="logo-copy" transform="translate(-0.000000, 1.000000)" fill-rule="nonzero">
                <path d="M55.609607,24.207937 L55.609607,20.8169809 C54.486191,20.2863351 53.1556937,20.0507802 51.7361516,20.0507802 C49.8144372,20.0507802 48.4544309,20.6699532 48.4544309,22.2618906 C48.4544309,23.7658184 49.636865,24.7686095 52.0317601,24.7686095 C53.4513023,24.7686095 54.6932723,24.5325369 55.609607,24.207937 Z M57.9460015,25.535328 C56.6444957,26.2430283 54.1900648,26.8917104 52.0027687,26.8917104 C47.7446598,26.8917104 46,24.9451463 46,22.3799269 C46,19.5491258 48.48394,17.9566707 51.7361516,17.9566707 C53.2737301,17.9566707 54.6042273,18.2517615 55.609607,18.664371 L55.609607,17.6030794 C55.609607,15.5089699 54.2496006,14.3886602 51.7956874,14.3886602 C50.1100458,14.3886602 48.6910213,15.0083509 47.8331871,15.6570331 C47.1965523,15.3520867 46.7455258,14.7594521 46.6212439,14.064578 C47.5080694,13.1793055 49.5483378,12.1770321 51.9137238,12.1770321 C55.2549803,12.1770321 57.9460015,13.710469 57.9460015,17.6025617 L57.9460015,25.535328 Z M72.634277,15.2728973 C71.9250236,14.7127424 70.7715808,14.3586334 69.5001017,14.3586334 C66.542981,14.3586334 64.5027127,16.393207 64.5027127,19.3130531 C64.5027127,22.2913997 66.542981,24.0603915 69.5001017,24.0603915 C71.0671894,24.0603915 71.9245059,23.5592548 72.634277,23.028609 L72.634277,15.2728973 Z M75.029172,26.1249919 C75.029172,29.6039575 72.3386684,32.2582218 68.3766858,32.2582218 C65.9222549,32.2582218 63.7344411,31.4920211 62.2853898,29.8405479 C62.4924711,29.2503662 63.02467,28.5426659 63.8229684,28.2185837 C64.739303,29.2798753 66.1293362,30.135121 68.3761681,30.135121 C71.3332888,30.135121 72.634277,28.3656114 72.634277,26.1249919 L72.634277,25.3287644 C71.6879155,25.800392 70.5940086,26.154501 69.2930205,26.154501 C65.3310378,26.154501 62.0487995,23.5592548 62.0487995,19.3130531 C62.0487995,15.1848877 65.1829747,12.1770321 69.5001017,12.1770321 C71.5398524,12.1770321 73.5806384,12.8552233 75.029172,13.975533 L75.029172,26.1249919 Z M80.1528807,12.7501295 C80.5670432,12.66212 80.9812058,12.6320932 81.3653416,12.6320932 C81.7499951,12.6320932 82.1641576,12.6616023 82.5482934,12.7501295 L82.5482934,26.6685803 C82.1641576,26.7565898 81.7499951,26.7866166 81.3653416,26.7866166 C80.9812058,26.7866166 80.5670432,26.7571075 80.1533984,26.6685803 L80.1528807,12.7501295 Z M81.3653416,7 C82.2816763,7 83.0214741,7.73720937 83.0214741,8.68098232 C83.0214741,9.62423756 82.282194,10.3614469 81.3653416,10.3614469 C80.4194978,10.3614469 79.6507086,9.62423756 79.6507086,8.68098232 C79.6507086,7.73720937 80.3899887,7 81.3653416,7 Z M87.9339599,7.11855403 C88.3227259,7.0368847 88.7191553,6.99731119 89.116394,7.0005177 C89.5010475,7.0005177 89.9447192,7.03002679 90.3288549,7.11855403 L90.3288549,26.4925612 C89.9442015,26.5805708 89.5010475,26.6100798 89.116394,26.6100798 C88.7191794,26.6133365 88.3227631,26.5739378 87.9339599,26.4925612 L87.9339599,7.11855403 Z M95.6839769,12.7501295 C96.0981395,12.66212 96.5123021,12.6320932 96.8964378,12.6320932 C97.2810913,12.6320932 97.6952539,12.6616023 98.0793897,12.7501295 L98.0793897,26.6685803 C97.6952539,26.7565898 97.2810913,26.7866166 96.8964378,26.7866166 C96.5123021,26.7866166 96.0981395,26.7571075 95.6844946,26.6685803 L95.6839769,12.7501295 Z M96.8964378,7 C97.8127725,7 98.5525704,7.73720937 98.5525704,8.68098232 C98.5525704,9.62423756 97.8132902,10.3614469 96.8964378,10.3614469 C95.9505941,10.3614469 95.1818048,9.62423756 95.1818048,8.68098232 C95.1818048,7.73720937 95.921085,7 96.8964378,7 Z M109.274204,27.0879199 C106.465664,27.0879199 104.425396,25.7610466 104.425396,22.428591 L104.425396,14.8504515 L102.029983,14.8504515 C101.947125,14.5327938 101.907423,14.2054245 101.911947,13.8771694 C101.911947,13.5530872 101.941456,13.2579964 102.029983,12.9339142 L104.425396,12.9339142 L104.425396,9.18884917 C104.809531,9.10032192 105.194185,9.07081283 105.60783,9.07081283 C105.991966,9.07081283 106.376619,9.10032192 106.761272,9.18884917 L106.761272,12.9339142 L112.290343,12.9339142 C112.37887,13.2579964 112.408379,13.5530872 112.408379,13.8771694 C112.408379,14.2312784 112.37887,14.4963425 112.290343,14.8504515 L106.761272,14.8504515 L106.761272,21.9564457 C106.761272,24.4631646 107.943707,24.9938104 109.451776,24.9938104 C110.575192,24.9938104 111.669099,24.3156192 112.112771,23.9325188 C112.703988,24.3451283 113.059132,24.9938104 113.177168,25.6129835 C112.438406,26.2916924 110.989355,27.0879199 109.274204,27.0879199 Z M118.373355,32.7174246 C117.54503,32.5698792 116.953813,31.9206794 116.687714,31.2725149 C118.136765,29.6800599 119.467262,28.0285866 120.443133,26.4061048 C117.752629,21.9538572 116.066988,17.4420737 114.854527,12.9007812 C115.327707,12.7537535 115.800888,12.6947353 116.333087,12.6947353 C116.658205,12.6947353 117.042341,12.7242444 117.397485,12.7827448 C118.432374,16.7343734 119.644317,19.9487927 121.655594,23.9594394 L121.891666,24.401558 C121.951202,24.2540125 122.03973,24.1359762 122.098748,23.9884308 C124.020462,20.3023839 125.114887,16.7048643 126.06073,12.7832625 C126.382887,12.725872 126.709376,12.696254 127.036601,12.6947353 C127.509782,12.6947353 128.041981,12.8127716 128.485652,12.9898261 C126.179284,21.8063118 123.547799,27.0848137 118.373355,32.7174246 Z" id="Shape" fill="#717171"></path>
                <polygon id="Path" fill="#FFC414" points="22.2218925 27.5863332 8.94539374 27.5863332 18.9525968 10.300223 28.9597998 27.5863332 31.8786105 32.7364447 37.9046758 32.7364447 18.9520791 0 0 32.7364447 24.547933 32.7364447"></polygon>
            </g>
            <rect id="Rectangle" fill="#717171" opacity="0.50196523" x="135" y="-1.77635684e-15" width="38" height="16.8888889" rx="1"></rect>
            <path d="M141.863788,12.0471407 C142.483972,12.0471407 143.043486,11.9729883 143.542329,11.8246835 C144.041173,11.6763786 144.464179,11.4539214 144.811347,11.1573117 C145.158515,10.860702 145.426475,10.4865693 145.615226,10.0349136 C145.803978,9.58325797 145.898354,9.05407932 145.898354,8.44737768 C145.898354,7.81371152 145.803978,7.27105061 145.615226,6.81939494 C145.426475,6.36773928 145.15683,5.99697716 144.806291,5.7071086 C144.455752,5.41724004 144.036117,5.20489446 143.547385,5.07007188 C143.058653,4.93524929 142.514307,4.867838 141.914346,4.867838 C141.631219,4.867838 141.292477,4.87963497 140.898121,4.90322893 C140.503765,4.92682288 140.124577,4.9723255 139.760556,5.03973679 L139.760556,5.03973679 L139.760556,11.8651303 C140.124577,11.9392827 140.495339,11.9881559 140.872842,12.0117498 C141.250345,12.0353438 141.58066,12.0471407 141.863788,12.0471407 Z M141.944681,10.6921738 C141.809859,10.6921738 141.693574,10.6904885 141.595828,10.6871179 C141.498082,10.6837473 141.412132,10.6786915 141.33798,10.6719504 L141.33798,10.6719504 L141.33798,6.24302838 C141.439097,6.22954612 141.546955,6.22111971 141.661554,6.21774915 C141.776153,6.21437858 141.887382,6.2126933 141.99524,6.2126933 C142.783952,6.2126933 143.360319,6.40144492 143.72434,6.77894817 C144.088361,7.15645141 144.270371,7.71259458 144.270371,8.44737768 C144.270371,9.14845513 144.079934,9.69785717 143.69906,10.0955838 C143.318187,10.4933104 142.733394,10.6921738 141.944681,10.6921738 Z M150.851552,12.0976992 C151.343654,12.0976992 151.803736,12.0201762 152.231798,11.8651303 C152.659859,11.7100843 153.028936,11.4792006 153.339028,11.1724792 C153.64912,10.8657578 153.893486,10.484884 154.072126,10.0298578 C154.250766,9.57483156 154.340086,9.04733819 154.340086,8.44737768 C154.340086,7.84741717 154.249081,7.3199238 154.06707,6.86489757 C153.88506,6.40987133 153.635638,6.02731224 153.318805,5.71722029 C153.001972,5.40712834 152.63121,5.17455938 152.206519,5.01951341 C151.781827,4.86446743 151.330172,4.78694444 150.851552,4.78694444 C150.386414,4.78694444 149.943184,4.86446743 149.521864,5.01951341 C149.100543,5.17455938 148.729781,5.40712834 148.409577,5.71722029 C148.089374,6.02731224 147.834896,6.40987133 147.646145,6.86489757 C147.457393,7.3199238 147.363017,7.84741717 147.363017,8.44737768 C147.363017,9.04733819 147.454022,9.57483156 147.636033,10.0298578 C147.818043,10.484884 148.067465,10.8657578 148.384298,11.1724792 C148.701131,11.4792006 149.071893,11.7100843 149.496585,11.8651303 C149.921276,12.0201762 150.372931,12.0976992 150.851552,12.0976992 Z M150.851552,10.7123971 C150.554942,10.7123971 150.292038,10.6584681 150.062839,10.55061 C149.833641,10.442752 149.639834,10.2893913 149.481417,10.090528 C149.323,9.89166464 149.20166,9.65403983 149.117396,9.37765353 C149.033132,9.10126723 148.991,8.79117528 148.991,8.44737768 C148.991,8.11032121 149.033132,7.80191454 149.117396,7.52215768 C149.20166,7.24240081 149.323,7.00309072 149.481417,6.8042274 C149.639834,6.60536409 149.833641,6.45031811 150.062839,6.33908948 C150.292038,6.22786084 150.554942,6.17224652 150.851552,6.17224652 C151.14142,6.17224652 151.402639,6.22617556 151.635208,6.33403363 C151.867777,6.4418917 152.06327,6.59525239 152.221686,6.79411571 C152.380103,6.99297902 152.501443,7.23228911 152.585707,7.51204598 C152.669971,7.79180285 152.712103,8.10358008 152.712103,8.44737768 C152.712103,8.79117528 152.669971,9.10126723 152.585707,9.37765353 C152.501443,9.65403983 152.380103,9.89166464 152.221686,10.090528 C152.06327,10.2893913 151.867777,10.442752 151.635208,10.55061 C151.402639,10.6584681 151.14142,10.7123971 150.851552,10.7123971 Z M159.303395,12.0976992 C159.835945,12.0976992 160.304453,12.0437702 160.708921,11.9359121 C161.113389,11.828054 161.426851,11.7067137 161.649308,11.5718911 L161.649308,11.5718911 L161.214506,10.3079294 C161.126871,10.3483762 161.029124,10.3921935 160.921266,10.4393814 C160.813408,10.4865693 160.688697,10.5287014 160.547134,10.5657776 C160.40557,10.6028538 160.243783,10.6348742 160.061772,10.6618387 C159.879762,10.6888032 159.674157,10.7022854 159.444959,10.7022854 C159.080938,10.7022854 158.770846,10.6433006 158.514683,10.5253308 C158.25852,10.407361 158.051231,10.2472592 157.892814,10.0450253 C157.734397,9.84279145 157.619798,9.60179608 157.549016,9.32203921 C157.478235,9.04228234 157.442844,8.74061681 157.442844,8.4170426 C157.442844,8.01257484 157.496773,7.66877724 157.604631,7.38564981 C157.712489,7.10252237 157.855738,6.87163869 158.034378,6.69299877 C158.213018,6.51435884 158.418622,6.3845921 158.651191,6.30369855 C158.88376,6.222805 159.121385,6.18235822 159.364065,6.18235822 C159.728086,6.18235822 160.053346,6.222805 160.339844,6.30369855 C160.626342,6.3845921 160.877449,6.48233847 161.093165,6.59693767 L161.093165,6.59693767 L161.548191,5.32286423 C161.494262,5.28915858 161.406628,5.24197068 161.285287,5.18130051 C161.163947,5.12063035 161.012272,5.06164547 160.830261,5.00434587 C160.648251,4.94704627 160.435905,4.8964878 160.193224,4.85267046 C159.950544,4.80885311 159.680899,4.78694444 159.384289,4.78694444 C158.871963,4.78694444 158.396713,4.867838 157.95854,5.0296251 C157.520367,5.19141221 157.142863,5.42903701 156.82603,5.74249953 C156.509197,6.05596204 156.259775,6.44020642 156.077765,6.89523265 C155.895754,7.35025888 155.804749,7.86764056 155.804749,8.44737768 C155.804749,9.61359306 156.103044,10.5135338 156.699634,11.1472 C157.296224,11.7808661 158.164144,12.0976992 159.303395,12.0976992 Z M165.473674,12.0976992 C166.397209,12.0976992 167.088175,11.917374 167.546571,11.5567236 C168.004968,11.1960732 168.234167,10.6888032 168.234167,10.0349136 C168.234167,9.69785717 168.190349,9.41135918 168.102715,9.17541965 C168.01508,8.93948012 167.881943,8.73387568 167.703303,8.55860631 C167.524663,8.38333695 167.30052,8.22997626 167.030875,8.09852424 C166.76123,7.96707221 166.444397,7.83393491 166.080376,7.69911232 C165.905106,7.63844216 165.745005,7.57945728 165.60007,7.52215768 C165.455136,7.46485808 165.327055,7.40081735 165.215826,7.33003549 C165.104597,7.25925363 165.018648,7.18004536 164.957978,7.09241068 C164.897308,7.004776 164.866973,6.89691793 164.866973,6.76883647 C164.866973,6.55312033 164.949551,6.39301851 165.114709,6.28853101 C165.279867,6.1840435 165.551197,6.13179975 165.9287,6.13179975 C166.265757,6.13179975 166.55394,6.17056124 166.79325,6.24808423 C167.03256,6.32560722 167.249962,6.41492718 167.445455,6.51604412 L167.445455,6.51604412 L167.900481,5.27230576 C167.678023,5.15096543 167.394896,5.03973679 167.051098,4.93861985 C166.707301,4.83750291 166.299463,4.78694444 165.827583,4.78694444 C165.429857,4.78694444 165.072577,4.83581763 164.755744,4.93356401 C164.438911,5.03131038 164.169266,5.17118882 163.946808,5.35319931 C163.724351,5.5352098 163.552452,5.75598179 163.431112,6.01551527 C163.309772,6.27504875 163.249102,6.56660259 163.249102,6.8901768 C163.249102,7.21375101 163.306401,7.48845203 163.421,7.71427986 C163.5356,7.9401077 163.683904,8.13222988 163.865915,8.29064642 C164.047925,8.44906296 164.25353,8.58051498 164.482728,8.68500249 C164.711927,8.78948999 164.941125,8.88218052 165.170323,8.96307407 C165.696131,9.13834344 166.066894,9.30181582 166.28261,9.45349123 C166.498326,9.60516664 166.606184,9.79560355 166.606184,10.0248019 C166.606184,10.13266 166.589331,10.2304064 166.555625,10.3180411 C166.52192,10.4056758 166.46125,10.4815135 166.373615,10.5455542 C166.28598,10.6095949 166.169696,10.6601534 166.024762,10.6972296 C165.879827,10.7343058 165.696131,10.7528439 165.473674,10.7528439 C165.02876,10.7528439 164.652942,10.7073413 164.34622,10.616336 C164.039499,10.5253308 163.781651,10.4225286 163.572676,10.3079294 L163.572676,10.3079294 L163.127761,11.5617794 C163.222137,11.6157085 163.338421,11.6730081 163.476615,11.7336782 C163.614808,11.7943484 163.779965,11.851648 163.972088,11.905577 C164.16421,11.9595061 164.384982,12.0050087 164.634404,12.0420849 C164.883825,12.0791611 165.163582,12.0976992 165.473674,12.0976992 Z" id="DOCS" fill="#FFFFFF" fill-rule="nonzero"></path>
        </g>
    </g>
</svg>