<?xml version="1.0" encoding="UTF-8"?>
<svg width="170px" height="33px" viewBox="0 0 170 33" version="1.1" xmlns="http://www.w3.org/2000/svg" xmlns:xlink="http://www.w3.org/1999/xlink">
    <title>logo</title>
    <g id="Symbols" stroke="none" stroke-width="1" fill="none" fill-rule="evenodd">
        <g id="Navigation" transform="translate(-32.000000, -67.000000)">
            <g id="logo" transform="translate(32.000000, 67.000000)">
                <path d="M55.609607,24.207937 L55.609607,20.8169809 C54.486191,20.2863351 53.1556937,20.0507802 51.7361516,20.0507802 C49.8144372,20.0507802 48.4544309,20.6699532 48.4544309,22.2618906 C48.4544309,23.7658184 49.636865,24.7686095 52.0317601,24.7686095 C53.4513023,24.7686095 54.6932723,24.5325369 55.609607,24.207937 Z M57.9460015,25.535328 C56.6444957,26.2430283 54.1900648,26.8917104 52.0027687,26.8917104 C47.7446598,26.8917104 46,24.9451463 46,22.3799269 C46,19.5491258 48.48394,17.9566707 51.7361516,17.9566707 C53.2737301,17.9566707 54.6042273,18.2517615 55.609607,18.664371 L55.609607,17.6030794 C55.609607,15.5089699 54.2496006,14.3886602 51.7956874,14.3886602 C50.1100458,14.3886602 48.6910213,15.0083509 47.8331871,15.6570331 C47.1965523,15.3520867 46.7455258,14.7594521 46.6212439,14.064578 C47.5080694,13.1793055 49.5483378,12.1770321 51.9137238,12.1770321 C55.2549803,12.1770321 57.9460015,13.710469 57.9460015,17.6025617 L57.9460015,25.535328 Z M72.634277,15.2728973 C71.9250236,14.7127424 70.7715808,14.3586334 69.5001017,14.3586334 C66.542981,14.3586334 64.5027127,16.393207 64.5027127,19.3130531 C64.5027127,22.2913997 66.542981,24.0603915 69.5001017,24.0603915 C71.0671894,24.0603915 71.9245059,23.5592548 72.634277,23.028609 L72.634277,15.2728973 Z M75.029172,26.1249919 C75.029172,29.6039575 72.3386684,32.2582218 68.3766858,32.2582218 C65.9222549,32.2582218 63.7344411,31.4920211 62.2853898,29.8405479 C62.4924711,29.2503662 63.02467,28.5426659 63.8229684,28.2185837 C64.739303,29.2798753 66.1293362,30.135121 68.3761681,30.135121 C71.3332888,30.135121 72.634277,28.3656114 72.634277,26.1249919 L72.634277,25.3287644 C71.6879155,25.800392 70.5940086,26.154501 69.2930205,26.154501 C65.3310378,26.154501 62.0487995,23.5592548 62.0487995,19.3130531 C62.0487995,15.1848877 65.1829747,12.1770321 69.5001017,12.1770321 C71.5398524,12.1770321 73.5806384,12.8552233 75.029172,13.975533 L75.029172,26.1249919 Z M80.1528807,12.7501295 C80.5670432,12.66212 80.9812058,12.6320932 81.3653416,12.6320932 C81.7499951,12.6320932 82.1641576,12.6616023 82.5482934,12.7501295 L82.5482934,26.6685803 C82.1641576,26.7565898 81.7499951,26.7866166 81.3653416,26.7866166 C80.9812058,26.7866166 80.5670432,26.7571075 80.1533984,26.6685803 L80.1528807,12.7501295 Z M81.3653416,7 C82.2816763,7 83.0214741,7.73720937 83.0214741,8.68098232 C83.0214741,9.62423756 82.282194,10.3614469 81.3653416,10.3614469 C80.4194978,10.3614469 79.6507086,9.62423756 79.6507086,8.68098232 C79.6507086,7.73720937 80.3899887,7 81.3653416,7 Z M87.9339599,7.11855403 C88.3227259,7.0368847 88.7191553,6.99731119 89.116394,7.0005177 C89.5010475,7.0005177 89.9447192,7.03002679 90.3288549,7.11855403 L90.3288549,26.4925612 C89.9442015,26.5805708 89.5010475,26.6100798 89.116394,26.6100798 C88.7191794,26.6133365 88.3227631,26.5739378 87.9339599,26.4925612 L87.9339599,7.11855403 Z M95.6839769,12.7501295 C96.0981395,12.66212 96.5123021,12.6320932 96.8964378,12.6320932 C97.2810913,12.6320932 97.6952539,12.6616023 98.0793897,12.7501295 L98.0793897,26.6685803 C97.6952539,26.7565898 97.2810913,26.7866166 96.8964378,26.7866166 C96.5123021,26.7866166 96.0981395,26.7571075 95.6844946,26.6685803 L95.6839769,12.7501295 Z M96.8964378,7 C97.8127725,7 98.5525704,7.73720937 98.5525704,8.68098232 C98.5525704,9.62423756 97.8132902,10.3614469 96.8964378,10.3614469 C95.9505941,10.3614469 95.1818048,9.62423756 95.1818048,8.68098232 C95.1818048,7.73720937 95.921085,7 96.8964378,7 Z M109.274204,27.0879199 C106.465664,27.0879199 104.425396,25.7610466 104.425396,22.428591 L104.425396,14.8504515 L102.029983,14.8504515 C101.947125,14.5327938 101.907423,14.2054245 101.911947,13.8771694 C101.911947,13.5530872 101.941456,13.2579964 102.029983,12.9339142 L104.425396,12.9339142 L104.425396,9.18884917 C104.809531,9.10032192 105.194185,9.07081283 105.60783,9.07081283 C105.991966,9.07081283 106.376619,9.10032192 106.761272,9.18884917 L106.761272,12.9339142 L112.290343,12.9339142 C112.37887,13.2579964 112.408379,13.5530872 112.408379,13.8771694 C112.408379,14.2312784 112.37887,14.4963425 112.290343,14.8504515 L106.761272,14.8504515 L106.761272,21.9564457 C106.761272,24.4631646 107.943707,24.9938104 109.451776,24.9938104 C110.575192,24.9938104 111.669099,24.3156192 112.112771,23.9325188 C112.703988,24.3451283 113.059132,24.9938104 113.177168,25.6129835 C112.438406,26.2916924 110.989355,27.0879199 109.274204,27.0879199 Z M118.373355,32.7174246 C117.54503,32.5698792 116.953813,31.9206794 116.687714,31.2725149 C118.136765,29.6800599 119.467262,28.0285866 120.443133,26.4061048 C117.752629,21.9538572 116.066988,17.4420737 114.854527,12.9007812 C115.327707,12.7537535 115.800888,12.6947353 116.333087,12.6947353 C116.658205,12.6947353 117.042341,12.7242444 117.397485,12.7827448 C118.432374,16.7343734 119.644317,19.9487927 121.655594,23.9594394 L121.891666,24.401558 C121.951202,24.2540125 122.03973,24.1359762 122.098748,23.9884308 C124.020462,20.3023839 125.114887,16.7048643 126.06073,12.7832625 C126.382887,12.725872 126.709376,12.696254 127.036601,12.6947353 C127.509782,12.6947353 128.041981,12.8127716 128.485652,12.9898261 C126.179284,21.8063118 123.547799,27.0848137 118.373355,32.7174246 Z" id="Shape" fill="#717171" fill-rule="nonzero"></path>
                <polygon id="Path" fill="#FFC414" fill-rule="nonzero" points="22.2218925 27.5863332 8.94539374 27.5863332 18.9525968 10.300223 28.9597998 27.5863332 31.8786105 32.7364447 37.9046758 32.7364447 18.9520791 0 0 32.7364447 24.547933 32.7364447"></polygon>
                <g id="docs" transform="translate(134.000000, 12.000000)" fill="#717171">
                    <path d="M36,0 L36,16 L0,16 L0,0 L36,0 Z M15.0172593,4.535 C14.5766023,4.535 14.1567009,4.60844283 13.7575551,4.75532849 C13.3584093,4.90221415 13.007161,5.12254264 12.7038102,5.41631396 C12.4004594,5.71008528 12.1593753,6.07250969 11.980558,6.50358717 C11.8017406,6.93466465 11.712332,7.43439521 11.712332,8.00277885 C11.712332,8.5711625 11.7985475,9.07089306 11.9709785,9.50197054 C12.1434094,9.93304802 12.3797038,10.2938758 12.6798614,10.584454 C12.9800191,10.8750321 13.3312674,11.0937641 13.7336064,11.2406497 C14.1359454,11.3875354 14.5638297,11.4609782 15.0172593,11.4609782 C15.4834616,11.4609782 15.9193289,11.3875354 16.324861,11.2406497 C16.7303932,11.0937641 17.0800449,10.8750321 17.3738162,10.584454 C17.6675875,10.2938758 17.8990921,9.93304802 18.0683299,9.50197054 C18.2375678,9.07089306 18.3221867,8.5711625 18.3221867,8.00277885 C18.3221867,7.43439521 18.2359712,6.93466465 18.0635402,6.50358717 C17.8911092,6.07250969 17.6548149,5.71008528 17.3546572,5.41631396 C17.0544996,5.12254264 16.7032513,4.90221415 16.3009123,4.75532849 C15.8985733,4.60844283 15.470689,4.535 15.0172593,4.535 Z M23.1009053,4.535 C22.6155439,4.535 22.1653075,4.611636 21.7501958,4.76490799 C21.3350842,4.91817998 20.9774495,5.14329822 20.6772919,5.44026271 C20.3771342,5.7372272 20.1408399,6.10124818 19.9684089,6.53232567 C19.7959779,6.96340315 19.7097624,7.45355421 19.7097624,8.00277885 C19.7097624,9.10761447 19.9923576,9.96018994 20.5575481,10.5605052 C21.1227386,11.1608206 21.944979,11.4609782 23.0242693,11.4609782 C23.5287896,11.4609782 23.9726397,11.4098875 24.3558197,11.3077062 C24.6623637,11.2259612 24.9137298,11.1360416 25.1099179,11.0379475 L25.2467132,10.9628442 L24.8347947,9.76540678 C24.7517724,9.80372478 24.6591705,9.84523594 24.5569892,9.88994027 C24.4548079,9.93464461 24.3366607,9.97455919 24.2025477,10.009684 C24.0684347,10.0448089 23.9151627,10.0751439 23.7427317,10.1006893 C23.5703007,10.1262346 23.3755176,10.1390073 23.1583823,10.1390073 C22.8135203,10.1390073 22.5197489,10.0831268 22.2770683,9.97136602 C22.0343876,9.85960519 21.8380079,9.70792978 21.6879291,9.51633979 C21.5378502,9.3247498 21.4292826,9.09643839 21.3622261,8.83140557 C21.2951696,8.56637275 21.2616413,8.28058434 21.2616413,7.97404036 C21.2616413,7.59086037 21.312732,7.26515738 21.4149133,6.9969314 C21.5170947,6.72870541 21.6528042,6.5099735 21.8220421,6.34073567 C21.9912799,6.17149785 22.186063,6.04856094 22.4063915,5.97192494 C22.62672,5.89528894 22.8518383,5.85697094 23.0817463,5.85697094 C23.4266082,5.85697094 23.7347488,5.89528894 24.006168,5.97192494 C24.2097323,6.02940194 24.3944371,6.09585972 24.5602821,6.17129827 L24.7198407,6.24973043 L25.1509182,5.04271348 C25.0998275,5.01078181 25.0168052,4.96607748 24.9018512,4.90860048 C24.7868972,4.85112349 24.6432047,4.79524307 24.4707737,4.74095924 C24.2983427,4.68667541 24.0971732,4.63877791 23.8672652,4.59726675 C23.6373572,4.55575558 23.3819039,4.535 23.1009053,4.535 Z M29.2050791,4.535 C28.8282854,4.535 28.4898098,4.58130091 28.1896521,4.67390274 C27.8894945,4.76650457 27.6340412,4.89902098 27.4232922,5.07145198 C27.2125432,5.24388297 27.0496917,5.45303538 26.9347377,5.6989092 C26.8197837,5.94478302 26.7623067,6.22099193 26.7623067,6.52753592 C26.7623067,6.8340799 26.8165905,7.09432298 26.9251582,7.30826513 C27.0337259,7.52220729 27.1742252,7.70421778 27.3466562,7.85429661 C27.5190872,8.00437544 27.7138703,8.12890893 27.9310056,8.22789709 C28.148141,8.32688526 28.3652763,8.41469734 28.5824116,8.49133333 C29.0805456,8.65737799 29.4317939,8.81224657 29.6361566,8.95593906 C29.8405192,9.09963156 29.9427006,9.28004547 29.9427006,9.49718079 C29.9427006,9.59936212 29.9267347,9.69196395 29.8948031,9.77498628 C29.8628714,9.85800861 29.8053944,9.92985486 29.7223721,9.99052502 C29.6393497,10.0511952 29.5291855,10.0990927 29.3918793,10.1342175 C29.2545732,10.1693423 29.0805456,10.1869048 28.8697966,10.1869048 C28.4482986,10.1869048 28.0922606,10.143797 27.8016824,10.0575815 C27.5837488,9.9929199 27.3918594,9.92197173 27.2260144,9.84473701 L27.0688507,9.76540678 L26.6473527,10.9532647 C26.7367614,11.0043554 26.8469256,11.0586392 26.9778454,11.1161162 C27.1087653,11.1735932 27.2652304,11.2278771 27.4472409,11.2789677 C27.6292514,11.3300584 27.8384038,11.3731661 28.0746981,11.408291 C28.3109925,11.4434158 28.5760253,11.4609782 28.8697966,11.4609782 C29.7447242,11.4609782 30.3993234,11.2901438 30.833594,10.948475 C31.2678647,10.6068062 31.485,10.1262346 31.485,9.50676029 C31.485,9.18744364 31.4434888,8.91602448 31.3604665,8.69250282 C31.2774442,8.46898117 31.1513141,8.27419801 30.9820763,8.10815335 C30.8128384,7.94210869 30.6004929,7.79681961 30.3450395,7.67228612 C30.0895862,7.54775262 29.7894286,7.42162255 29.4445666,7.29389588 C29.2785219,7.23641889 29.1268465,7.18053847 28.9895404,7.12625464 C28.8522342,7.07197081 28.7308939,7.01130065 28.6255194,6.94424415 C28.5201449,6.87718765 28.4387191,6.80214824 28.3812421,6.71912591 C28.3237651,6.63610358 28.2950266,6.53392225 28.2950266,6.41258192 C28.2950266,6.20821926 28.3732592,6.05654385 28.5297244,5.95755569 C28.6861895,5.85856753 28.9432394,5.80907345 29.3008741,5.80907345 C29.6201907,5.80907345 29.8932065,5.84579486 30.1199213,5.91923769 C30.2710645,5.96819958 30.412983,6.02212861 30.5456768,6.0810248 L30.737799,6.17309443 L31.1688765,4.99481598 C30.9581275,4.87986199 30.6899015,4.77448749 30.3641985,4.67869249 C30.0384956,4.5828975 29.6521224,4.535 29.2050791,4.535 Z M6.55043341,4.611636 C6.28220743,4.611636 5.96129419,4.62281208 5.5876937,4.64516425 C5.33862672,4.66006569 5.09594606,4.68419184 4.85965174,4.71754269 L4.51,4.77448749 L4.51,11.2406497 C4.85486199,11.3108994 5.2061103,11.3572003 5.56374496,11.3795525 C5.92137961,11.4019046 6.23430993,11.4130807 6.50253592,11.4130807 C7.09007856,11.4130807 7.6201442,11.342831 8.09273285,11.2023317 C8.5653215,11.0618324 8.9660639,10.8510834 9.29496005,10.5700847 C9.6238562,10.2890861 9.87771294,9.93464461 10.0565303,9.50676029 C10.2353476,9.07887598 10.3247563,8.57754883 10.3247563,8.00277885 C10.3247563,7.40246355 10.2353476,6.88836373 10.0565303,6.46047942 C9.87771294,6.0325951 9.62225962,5.68134679 9.2901703,5.40673446 C8.95808098,5.13212214 8.56053175,4.93095265 8.0975226,4.80322599 C7.63451345,4.67549933 7.11881706,4.611636 6.55043341,4.611636 Z M15.0172593,5.84739144 C15.2918716,5.84739144 15.5393421,5.89848211 15.7596705,6.00066344 C15.979999,6.10284477 16.1652027,6.24813384 16.3152815,6.43653067 C16.4653604,6.6249275 16.5803143,6.85164232 16.6601435,7.11667514 C16.7399727,7.38170796 16.7798873,7.67707587 16.7798873,8.00277885 C16.7798873,8.32848184 16.7399727,8.62225316 16.6601435,8.88409282 C16.5803143,9.14593247 16.4653604,9.37105071 16.3152815,9.55944754 C16.1652027,9.74784436 15.979999,9.89313344 15.7596705,9.99531477 C15.5393421,10.0974961 15.2918716,10.1485868 15.0172593,10.1485868 C14.7362607,10.1485868 14.4871937,10.0974961 14.2700584,9.99531477 C14.052923,9.89313344 13.869316,9.74784436 13.7192371,9.55944754 C13.5691583,9.37105071 13.4542043,9.14593247 13.3743751,8.88409282 C13.294546,8.62225316 13.2546314,8.32848184 13.2546314,8.00277885 C13.2546314,7.6834622 13.294546,7.39128746 13.3743751,7.12625464 C13.4542043,6.86122182 13.5691583,6.63450699 13.7192371,6.44611017 C13.869316,6.25771334 14.052923,6.11082768 14.2700584,6.00545319 C14.4871937,5.90007869 14.7362607,5.84739144 15.0172593,5.84739144 Z M6.62706941,5.88570944 C7.37427038,5.88570944 7.92030186,6.06452677 8.26516384,6.42216142 C8.61002583,6.77979607 8.78245682,7.30666855 8.78245682,8.00277885 C8.78245682,8.66695749 8.60204291,9.18744364 8.24121509,9.56423729 C7.88038727,9.94103094 7.32637288,10.1294278 6.57917191,10.1294278 C6.45144525,10.1294278 6.34128101,10.1278312 6.24867918,10.124638 C6.18694462,10.1225092 6.13017722,10.1196709 6.07837696,10.1161229 L6.00440194,10.1102688 L6.00440194,5.91444794 C6.10019693,5.90167528 6.20237826,5.89369236 6.31094592,5.89049919 C6.41951359,5.88730603 6.52488808,5.88570944 6.62706941,5.88570944 Z" id="Combined-Shape"></path>
                </g>
            </g>
        </g>
    </g>
</svg>